<svg xmlns="http://www.w3.org/2000/svg" width="48" height="31" viewBox="0 0 82.969 54.375"><path data-name="Shape 1 copy 2" d="M24.403 2.08s.839 2.739 1.2 2.885a4.953 4.953 0 0 1 1.932 2.409c.146.913-.067 1.446.588 1.883s8.762 5.155 10.165 6.686 5.114 5.873 5.676 6.123a9.523 9.523 0 0 0 2.089.875 8.148 8.148 0 0 1 4.584 2.717c1.5 1.875 2.276 1.626 2.65 1.626a2.106 2.106 0 0 1 .967.01c.187.145 1.06-.042.655-1.042a6.085 6.085 0 0 1 1.621-6.529c2.557-2.125 5.52-1.843 6.954-.625s2.152 1.781 2.121 2.718a1.99 1.99 0 0 0 .374 1.624.693.693 0 0 1 .325.669 8.243 8.243 0 0 0-.343 1.245 3.815 3.815 0 0 1-.643 3.332 2.987 2.987 0 0 1-2.317 1.245 2.976 2.976 0 0 0-1.008 1.074s-.557.9.966.173 4.246.687 5.983-.56 3.153-1.869 5.362-1.418 3.6-.107 4.161-1.353.9-1.762 1.5-2.02 1.394-1.848 1.716-1.912a.436.436 0 0 1 .557.258s.729-.214.644.838-.9 1.719-.494 1.976.9.216.365.924a8.406 8.406 0 0 0-.922 1.634 6.055 6.055 0 0 1-2.467 1.675 16.949 16.949 0 0 0-3.731 2.106 8.991 8.991 0 0 1-3.818 1.46c-1.844.366-6.391.539-7.935 2.859a67.746 67.746 0 0 1-6.906 8.465 14.664 14.664 0 0 1-5.263 3 27.016 27.016 0 0 0-5.4 2.206c-.524.315-7.289 4.387-15.261 2.628s-7.735-1.261-8.627-1.392-3.854-.842-4.457-1.393a6.245 6.245 0 0 0-3.068-.763 9.652 9.652 0 0 1-3.435-1A8.757 8.757 0 0 0 6.9 49.08c-.918.263-4.851 1.366-6.372-.656s.63-3.1 1.521-3.363a6.013 6.013 0 0 0 3.094-1.839 2.162 2.162 0 0 1 2.57-.551c.21.105 1.757-1.945 2.911-.263s.734 1.787 2.019 1.419 1.809-.709 3.173-.473a14.17 14.17 0 0 0 4.85.21c1.521-.315 2.885.578 3.7.893s2.832.421 4.982-1.707 6.765-3.39 9.728-2.26c0 0 1.259.394 2.176-1.261s2.072-3.992 2.492-4.649a4.507 4.507 0 0 0 1.022-2.891 9.592 9.592 0 0 1 .262-2.548.846.846 0 0 0-.629-1.234 19.253 19.253 0 0 1-4.982-3.126c-.42-.578-3.042-3.652-4.93-4.6s-7.079-7.25-7.525-8.09a2.873 2.873 0 0 0-1.547-1.341c-.368-.131-1.18-.21-2.229-3.074s-1.468-3.86-1.311-4.491a8.8 8.8 0 0 0 .472-1.523A2.229 2.229 0 0 1 22.793.19c.34-.316.914-.528 1.61 1.89z" fill="red"/></svg>