<svg xmlns="http://www.w3.org/2000/svg" width="1404" height="907"><defs><linearGradient id="a" x1="703" y1="907" x2="703" y2="-.031" gradientUnits="userSpaceOnUse"><stop offset="0" stop-color="#701f51"/><stop offset=".003" stop-color="#701f51"/><stop offset="1" stop-color="#f54359"/></linearGradient></defs><path data-name="Shape 1 copy" d="M413.842 34.657s14.182 45.68 20.348 48.116 30.212 24.971 32.678 40.2-1.13 24.112 9.948 31.407 148.238 85.982 171.977 111.515 86.516 97.969 96.013 102.136 16.88 9.9 35.344 14.592 52.226 14.07 77.549 45.336 38.51 27.1 44.841 27.1 13.188-2.236 16.353.185 17.937-.706 11.079-17.381-15.827-73.481 27.428-108.917 93.377-30.745 117.637-10.422 36.4 29.7 35.88 45.337 2.63 25.533 6.33 27.1 5.5 6.118 5.5 11.136-6.89 15.412-5.8 20.788 8.34 33.688-10.89 55.551-31.93 19-39.18 20.788-17.06 17.919-17.06 17.919-9.43 15.052 16.33 2.868 71.84 11.468 101.23-9.319 53.34-31.18 90.71-23.654 60.95-1.792 70.38-22.579 15.24-29.389 25.4-33.69 23.59-30.822 29.03-31.9 6.53.357 9.43 4.3c0 0 12.34-3.585 10.89 13.977s-15.24 28.672-8.35 32.972 15.24 3.585 6.17 15.412-13.79 23.654-15.6 27.238-17.42 18.278-41.73 27.956-51.16 25.446-63.13 35.123-33.38 18.278-64.58 24.371-108.12 8.96-134.25 47.667S982.7 755.834 964.923 769.1s-44.233 37.241-89.037 49.949-82.51 31.55-91.383 36.808-123.322 73.179-258.177 43.819-130.864-21.038-145.946-23.229-65.21-14.023-75.413-23.225-41.256-12.707-51.9-12.707-42.142-7.448-58.112-16.651-61.661-9.64-77.187-5.258S35.7 841.391 9.97 807.65s10.646-51.706 25.73-56.088 35.045-10.954 52.345-30.674 39.925-10.954 43.474-9.2 29.722-32.426 49.24-4.381 12.421 29.8 34.157 23.662 30.608-11.831 53.676-7.887 56.337 8.763 82.067 3.5 48.8 9.641 62.549 14.9 47.908 7.011 84.284-28.482 114.45-56.527 164.578-37.685c0 0 21.293 6.573 36.819-21.033s35.044-66.605 42.143-77.56 18.631-25.414 17.3-48.2 4.437-39.875 4.437-42.505 7.1-16.214-10.647-20.595-77.187-42.5-84.285-52.144-51.457-60.91-83.4-76.685S464.665 215.652 457.123 201.63a48.419 48.419 0 0 0-26.173-22.347c-6.21-2.192-19.962-3.507-37.706-51.27S368.4 63.6 371.064 53.082s7.984-17.966 7.984-25.415 1.775-19.28 7.542-24.538 15.469-8.806 27.252 31.528z" transform="translate(-1)" fill-rule="evenodd" fill="url(#a)"/></svg>