<svg xmlns="http://www.w3.org/2000/svg" width="1200" height="1025.09"><defs><linearGradient id="a" x1="599.922" y1="3348" x2="599.922" y2="2322.91" gradientUnits="userSpaceOnUse"><stop offset="0" stop-color="#a52d55"/><stop offset=".003" stop-color="#a52d55"/><stop offset="1" stop-color="#f6435a"/></linearGradient></defs><path data-name="Shape 1 copy 8" d="M1200 2411c-94.43-7.08-220.662-22.66-369.007-57.14C615.435 2303.76 299.264 2311.76 0 2398v13l-.168 845.92c18.573-.13 40.145 2.2 50.121 7.94 15.97 9.21 47.465 16.66 58.112 16.66s41.7 3.5 51.9 12.7 60.33 21.04 75.413 23.23 11.089-6.14 145.946 23.22 249.3-38.56 258.177-43.82 46.578-24.1 91.383-36.81 71.258-36.68 89.037-49.95 90.706-102.5 116.83-141.2 103.049-41.58 134.249-47.67 52.61-14.7 64.58-24.37C1170.5 2968.63 1200 2961 1200 2961v-550z" transform="translate(0 -2322.91)" fill-rule="evenodd" fill="url(#a)"/></svg>