<svg xmlns="http://www.w3.org/2000/svg" viewBox="0 0 2351 750"><linearGradient id="a" gradientUnits="userSpaceOnUse" x1="889.98" y1="344.246" x2="889.98"><stop offset="0" stop-color="#f52848"/><stop offset="1" stop-color="#f6445a"/></linearGradient><path d="M0 344.2c.5-.2 30.2-9.5 44.1-15 35.9-14 66.9-35.4 92.4-64.4 16-18.1 35.4-29.8 59.7-33 16.8-2.2 33.1 0 48.8 6.1 5.9 2.3 10.1 1.5 14.8-2.1 8.3-6.4 16.7-12.7 25.4-18.7 9.7-6.7 20.1-12.2 31.7-15.3 18.8-4.9 35.5-1.1 49.6 12.2 5.3 5 10.1 10.7 14.1 16.8 10.2 15.4 20 31.1 29.8 46.7 13.5 21.6 17.9 23.7 42.2 17 22.4-6.2 44.7-12.9 66.8-19.8 30.2-9.4 60.7-9.9 91.6-4.6 50.3 8.7 100.8 15.5 152 14.6 19.8-.4 39.4-2 58.9-5.8 33.6-6.5 66-1.6 97.5 10.5 15.5 5.9 30.9 12 45.6 19.5 38.6 19.7 78.4 20 119 8.7 46-12.8 84.4-38.5 118.4-71.2 22.2-21.3 46.7-39.4 73.6-54.4 53.6-30 111.1-49 171.6-59 32.8-5.4 65.9-7.2 99.1-5.5 27.2 1.4 54 5.4 79.6 14.7 26.2 9.4 49.5 3.9 71.2-11.7 13.7-9.8 23.9-22.9 32.2-37.4 6.5-11.3 12.9-22.7 19-34.3 10.5-19.6 20.9-39.3 31.3-58.9H0v344.3z" fill="url(#a)"/></svg>