<svg width="430" height="278" xmlns="http://www.w3.org/2000/svg"><defs><linearGradient x1="50.001%" y1="100.026%" x2="50.001%" y2=".001%" id="a"><stop stop-color="#f0425a" offset="0%"/><stop stop-color="#A52D55" offset=".3%"/><stop stop-color="#F6435A" offset="100%"/></linearGradient></defs><path d="M0 235.37v3.113c-.072 1.783.023 3.124.283 4.024.279.963.868 1.728 1.08 2.397.671 2.112 3.275 4.498 5.771 5.88 1.104.612.503.22 2.727 1.183 2.225.963 7.952 1.444 12.922.963 6.155-.595 13.057-2.47 14.014-2.678.958-.207 2.775-.423 4.825-.532 4.206-.224 9.997.233 13.464.896.316.06.823.196 1.522.408 1.454.517 2.351.878 2.692 1.085.197.12 1.508.826 3.513 1.607 3.192 1.243 8.088 2.792 12.633 3.335 2.32.277 4.05.168 5.792.402 3.813.512 6.51 1.268 7.28 1.438.714.157 1.174.4 1.59.555.796.295 1.258.51 1.828.904 1.376.95 2.84 2.26 6.688 3.456 6.273 1.95 6.04 1.968 10.2 2.866 2.255.488 6.15 1.532 7.82 1.558 1.67.025 2.124-.032 3.778 0 1.306.025 3.064.22 5.081.455 2.769.32 6.411.801 11.065 1.81 2.245.487 4.476.773 6.636 1.193a962.962 962.962 0 0 1 15.925 3.242c1.458.31 3.03.693 4.42.936 3.14.549 6.663 1.047 10.185 1.321 5.572.434 11.138.435 15.158.142 6.561-.479 12.743-1.62 17.565-2.645 14.232-3.025 27.202-9.495 28.78-10.365 3.503-1.93 15.83-9.07 31.62-13.535a65.718 65.718 0 0 0 20.62-9.99c3.434-2.491 6.78-4.868 9.202-7.218 1.481-1.437 2.557-2.92 3.68-3.922.543-.483 7.313-8.215 14.069-16.62 7.171-8.924 14.367-18.586 15.49-20.37 1.273-2.027 4.075-4.85 7.589-6.879 2.552-1.474 5.997-2.471 6.901-2.86.904-.39 6.93-2.185 13.626-3.33 5.593-.957 12.433-1.724 18.04-3.07 6.189-1.486 11.451-3.514 13.704-5.494a10.87 10.87 0 0 1 1.143-.869c.92-.62 1.925-1.357 3.023-2.07 3.12-2.023 6.966-4.389 11.715-6.76 2.102-1.048 4.713-1.94 7.157-3.074 2.304-1.067 4.453-2.367 6.123-3.633 1.502-1.138 2.91-2.128 4.025-3.57.554-.717.776-1.627 1.184-2.464.544-1.118 1.239-2.17 1.76-3.089 1.438-2.53 2.936-4.192 3.172-4.944.09-.284.396-.896.92-1.837V0H0v235.37z" fill="url(#a)"/></svg>