<svg id="Layer_1" xmlns="http://www.w3.org/2000/svg" viewBox="0 0 29 41.7"><style/><path d="M27.8 5.2h-24c-.8 0-1.4-.6-1.4-1.4S3 2.4 3.8 2.4h24c.7 0 1.2-.5 1.2-1.2S28.4 0 27.8 0h-24C1.7 0 0 1.7 0 3.8v33.7c0 2.3 1.9 4.2 4.2 4.2h20.6c2.3 0 4.2-1.9 4.2-4.2V6.4c0-.6-.6-1.2-1.2-1.2zm-8.3 2.4h3v5l-.8-.7c-.2-.2-.4-.3-.7-.3-.2 0-.5.1-.7.3l-.8.7v-5zm5.3 31.7H4.2c-1 0-1.8-.8-1.8-1.8V7.4c.4.2.9.3 1.4.3h13.6V15c0 .4.2.8.6 1 .4.2.8.1 1.1-.2l1.9-1.6 1.9 1.6c.2.2.4.3.7.3.1 0 .3 0 .4-.1.4-.2.6-.5.6-1V7.6h2v29.9c0 1-.8 1.8-1.8 1.8z" fill="#f24158"/></svg>