<svg xmlns="http://www.w3.org/2000/svg" width="18" height="16"><path d="M1.418 14.993a.882.882 0 0 0 .743 1 .867.867 0 0 0 .461-.061l3.574-1.548a10.8 10.8 0 0 0 2.8.374c4.964 0 9-3.316 9-7.379S13.961 0 9 0 0 3.31 0 7.38a6.579 6.579 0 0 0 1.85 4.49zm.327-7.614c0-3.1 3.256-5.609 7.255-5.609s7.254 2.516 7.254 5.609S13 12.988 9 12.988a9.071 9.071 0 0 1-2.618-.379.865.865 0 0 0-.589.034L3.36 13.69l.279-2.014a.891.891 0 0 0-.266-.767 4.833 4.833 0 0 1-1.628-3.53z" fill="#fff" fill-rule="evenodd"/></svg>