<svg xmlns="http://www.w3.org/2000/svg" width="406" height="262.563"><path d="M119.386 10.037s4.1 13.226 5.884 13.93 8.736 7.23 9.449 11.633-.327 6.979 2.876 9.089 42.865 24.888 49.73 32.281 25.017 28.358 27.763 29.566 4.882 2.864 10.221 4.225 15.1 4.069 22.424 13.118 11.135 7.849 12.966 7.849 3.813-.65 4.728.051 5.187-.2 3.2-5.033-4.576-21.266 7.932-31.523 27-8.9 34.018-3.019 10.525 8.6 10.372 13.124.764 7.39 1.831 7.844a3.322 3.322 0 0 1 1.592 3.224c0 1.451-1.993 4.459-1.679 6.017s2.413 9.75-3.147 16.081-9.233 5.494-11.331 6.017-4.931 5.185-4.931 5.185-2.728 4.358 4.722.832 20.772 3.318 29.27-2.7 15.423-9.025 26.229-6.849 17.626-.517 20.354-6.534 4.407-8.508 7.344-9.75 6.82-8.921 8.393-9.234 1.889.1 2.728 1.246c0 0 3.568-1.037 3.148 4.046s-4.407 8.3-2.414 9.542 4.407 1.04 1.784 4.459a40.477 40.477 0 0 0-4.511 7.889c-.525 1.035-5.036 5.286-12.065 8.092a83.152 83.152 0 0 0-18.256 10.166c-3.462 2.8-9.652 5.292-18.675 7.052s-31.264 2.6-38.819 13.8-28.641 37.039-33.778 40.874-12.791 10.78-25.747 14.457a133.228 133.228 0 0 0-26.424 10.652c-2.565 1.523-35.66 21.187-74.655 12.69s-37.841-6.089-42.2-6.724-18.857-4.061-21.807-6.726-11.929-3.678-15.008-3.678-12.186-2.154-16.8-4.819-17.831-2.789-22.32-1.523-23.731 6.6-31.171-3.171 3.079-14.964 7.44-16.233 10.133-3.169 15.136-8.876 11.545-3.171 12.571-2.664 8.6-9.391 14.239-1.267 3.591 8.622 9.877 6.846 8.85-3.422 15.521-2.283 16.291 2.539 23.73 1.016 14.111 2.79 18.087 4.313 13.853 2.029 24.372-8.244 33.094-16.367 47.589-10.913c0 0 6.158 1.9 10.647-6.086s10.134-19.28 12.186-22.448 5.388-7.358 5-13.957a45.538 45.538 0 0 1 1.283-12.3c0-.76 2.052-4.691-3.079-5.961s-22.319-12.3-24.372-15.092-14.879-17.634-24.116-22.2-34.633-35-36.814-39.061a14 14 0 0 0-7.568-6.475c-1.8-.632-5.773-1.014-10.9-14.836s-7.183-18.645-6.414-21.688 2.309-5.2 2.309-7.356.513-5.584 2.181-7.107 4.464-2.549 7.875 9.124z" fill="#fff" fill-rule="evenodd"/></svg>