<?xml version="1.0" encoding="utf-8"?>
<!-- Generator: Adobe Illustrator 22.1.0, SVG Export Plug-In . SVG Version: 6.00 Build 0)  -->
<svg version="1.1" id="Layer_1" xmlns="http://www.w3.org/2000/svg" xmlns:xlink="http://www.w3.org/1999/xlink" x="0px" y="0px"
	 viewBox="0 0 2351 750" style="enable-background:new 0 0 2351 750;" xml:space="preserve">
<style type="text/css">
	.st0{fill:url(#SVGID_1_);}
</style>
<linearGradient id="SVGID_1_" gradientUnits="userSpaceOnUse" x1="889.9804" y1="344.2458" x2="889.9804" y2="-7.396654e-05">
	<stop  offset="0" style="stop-color:#F52848"/>
	<stop  offset="1" style="stop-color:#F6445A"/>
</linearGradient>
<path class="st0" d="M0,344.2c0.5-0.2,30.2-9.5,44.1-15c35.9-14,66.9-35.4,92.4-64.4c16-18.1,35.4-29.8,59.7-33
	c16.8-2.2,33.1,0,48.8,6.1c5.9,2.3,10.1,1.5,14.8-2.1c8.3-6.4,16.7-12.7,25.4-18.7c9.7-6.7,20.1-12.2,31.7-15.3
	c18.8-4.9,35.5-1.1,49.6,12.2c5.3,5,10.1,10.7,14.1,16.8c10.2,15.4,20,31.1,29.8,46.7c13.5,21.6,17.9,23.7,42.2,17
	c22.4-6.2,44.7-12.9,66.8-19.8c30.2-9.4,60.7-9.9,91.6-4.6c50.3,8.7,100.8,15.5,152,14.6c19.8-0.4,39.4-2,58.9-5.8
	c33.6-6.5,66-1.6,97.5,10.5c15.5,5.9,30.9,12,45.6,19.5c38.6,19.7,78.4,20,119,8.7c46-12.8,84.4-38.5,118.4-71.2
	c22.2-21.3,46.7-39.4,73.6-54.4c53.6-30,111.1-49,171.6-59c32.8-5.4,65.9-7.2,99.1-5.5c27.2,1.4,54,5.4,79.6,14.7
	c26.2,9.4,49.5,3.9,71.2-11.7c13.7-9.8,23.9-22.9,32.2-37.4c6.5-11.3,12.9-22.7,19-34.3c10.5-19.6,20.9-39.3,31.3-58.9H0L0,344.2z"
	/>
</svg>
