<?xml version="1.0" encoding="utf-8"?>
<!-- Generator: Adobe Illustrator 22.1.0, SVG Export Plug-In . SVG Version: 6.00 Build 0)  -->
<svg version="1.1" id="Layer_1" xmlns="http://www.w3.org/2000/svg" xmlns:xlink="http://www.w3.org/1999/xlink" x="0px" y="0px"
	 viewBox="0 0 2351 750" style="enable-background:new 0 0 2351 750;" xml:space="preserve">
<style type="text/css">
	.st0{fill:#FFFFFF;}
</style>
<path class="st0" d="M2351,445.5c-49.4,33.6-102.8,59.3-161,75.6c-51.9,14.5-102.3,33.4-151.8,54.5c-38.8,16.5-75.4,37.1-112.7,56.5
	c-129.7,67.5-267.4,106.9-413.6,116c-74.3,4.6-147.8-0.7-220.5-15.6c-86.4-17.8-172.5-37-259.6-50.8c-31.8-5.1-63.6-10.4-95.9-10.3
	c-23.8,0.1-47-2.6-70.1-7.8c-43.5-9.8-86.8-20.3-128.5-36.5c-10.9-4.2-22-9.1-31.3-16c-12.9-9.4-26.7-16-41.8-20.4
	c-25.8-7.5-52.2-12.1-78.9-13.5c-23.9-1.2-47.6-3.6-70.9-9.4c-32.8-8.2-65-17.9-95.4-33.2c-10.4-5.3-21.5-9.8-32.8-12.5
	c-43.5-10.5-87.7-11.4-132.1-8.8c-17.2,1-34.1,4.2-50.7,8.8c-38.8,10.8-78.2,17.9-118.5,20c-26.6,1.4-52.9-0.2-78.7-6.8
	C4.1,534.6,2,534,0,533.4V750h2351V445.5z"/>
</svg>
