<?xml version="1.0" encoding="UTF-8"?>
<svg width="430px" height="278px" viewBox="0 0 430 278" version="1.1" xmlns="http://www.w3.org/2000/svg" xmlns:xlink="http://www.w3.org/1999/xlink">
    <!-- Generator: Sketch 50.2 (55047) - http://www.bohemiancoding.com/sketch -->
    <title>man_BG</title>
    <desc>Created with Sketch.</desc>
    <defs>
        <linearGradient x1="50.0013331%" y1="100.025651%" x2="50.0013331%" y2="0.00131813752%" id="linearGradient-1">
            <stop stop-color="#f0425a" offset="0%"></stop>
            <stop stop-color="#A52D55" offset="0.3%"></stop>
            <stop stop-color="#F6435A" offset="100%"></stop>
        </linearGradient>
    </defs>
    <g id="Symbols" stroke="none" stroke-width="1" fill="none" fill-rule="evenodd">
        <g id="Group" fill="url(#linearGradient-1)" fill-rule="nonzero">
            <path d="M2.01325101e-07,235.369279 L2.01325101e-07,238.483338 C-0.0716570022,240.266222 0.0226477277,241.607403 0.282914391,242.506879 C0.561513075,243.469711 1.1512815,244.235153 1.36356268,244.903903 C2.03395448,247.015843 4.63794991,249.402426 7.13415589,250.784371 C8.23827019,251.395629 7.63681451,251.00432 9.86142891,251.967257 C12.0860433,252.930194 17.8132632,253.411161 22.7832759,252.930194 C28.9380578,252.334573 35.8397116,250.459565 36.7971566,250.252452 C37.7546015,250.045338 39.5718426,249.828584 41.6218664,249.719539 C45.8284522,249.495782 51.6186072,249.953295 55.0863426,250.616171 C55.4023776,250.676583 55.9094851,250.812388 56.6076652,251.023587 C58.0617442,251.540556 58.9591011,251.902395 59.2997359,252.109104 C59.4968828,252.228739 60.8075396,252.934586 62.8128255,253.715765 C66.0047068,254.959193 70.9007587,256.507698 75.4457732,257.050596 C77.7668263,257.327845 79.4952669,257.218825 81.2377787,257.452827 C85.0510579,257.964912 87.7484561,258.72129 88.5178483,258.890872 C89.2319495,259.048268 89.692163,259.291353 90.1079646,259.44556 C90.9042048,259.740859 91.3664681,259.956713 91.9363333,260.350014 C93.3124219,261.299744 94.7759509,262.609354 98.6235345,263.805871 C104.89654,265.756643 104.664692,265.773992 108.823485,266.67231 C111.079402,267.159598 114.97482,268.204471 116.644015,268.22997 C118.31321,268.25547 118.768311,268.197703 120.421576,268.22997 C121.728093,268.25547 123.485704,268.450857 125.50317,268.684734 C128.271763,269.005686 131.914155,269.486352 136.56774,270.495151 C138.81333,270.981947 141.043805,271.2681 143.203618,271.688195 C148.783632,272.773534 154.057276,273.855167 159.129451,274.930382 C160.587252,275.239411 162.158596,275.62317 163.549144,275.866231 C166.6889,276.415047 170.212118,276.912646 173.733558,277.187133 C179.305847,277.621478 184.871747,277.621707 188.892072,277.328591 C195.453065,276.850239 201.6354,275.708586 206.456647,274.683879 C220.68948,271.658835 233.658862,265.188646 235.237525,264.318817 C238.739529,262.389246 251.067321,255.248463 266.856826,250.784371 C274.843146,248.526436 281.812605,244.903624 287.476448,240.794518 C290.910805,238.3029 294.256458,235.926231 296.679241,233.575673 C298.16042,232.138649 299.235955,230.655516 300.359813,229.654466 C300.902206,229.171343 307.671665,221.439439 314.427661,213.033185 C321.59937,204.109672 328.795373,194.44795 329.917388,192.663105 C331.191124,190.636908 333.993354,187.814477 337.506692,185.78544 C340.059484,184.311141 343.504272,183.313537 344.408048,182.92419 C345.311825,182.534844 351.337092,180.739696 358.033951,179.594618 C363.626686,178.638331 370.466713,177.870617 376.074473,176.524588 C382.262851,175.039194 387.525375,173.011153 389.77822,171.030979 C390.13695,170.715668 390.489608,170.453705 390.921373,170.162331 C391.841482,169.541403 392.845981,168.804765 393.944371,168.092462 C397.064487,166.069071 400.910394,163.703226 405.659433,161.332778 C407.761441,160.283576 410.371809,159.391478 412.816244,158.258413 C415.119765,157.190665 417.268587,155.890667 418.939455,154.624516 C420.440566,153.487002 421.849095,152.496922 422.963535,151.054966 C423.517751,150.337875 423.739918,149.42792 424.147515,148.591012 C424.691927,147.473186 425.386767,146.420326 425.908491,145.502104 C427.34623,142.971718 428.843854,141.310488 429.080253,140.558479 C429.169563,140.274376 429.476145,139.661876 430,138.720979 L430,134.201674 C430,94.1306387 430,64.6013156 430,44.8761573 C430,34.899741 430,19.9410219 430,-5.68434189e-14 L2.01325108e-07,-5.68434189e-14 L2.01325101e-07,235.369279 Z" id="man_BG"></path>
        </g>
    </g>
</svg>