<?xml version="1.0" encoding="utf-8"?>
<!-- Generator: Adobe Illustrator 22.1.0, SVG Export Plug-In . SVG Version: 6.00 Build 0)  -->
<svg version="1.1" id="Layer_1" xmlns="http://www.w3.org/2000/svg" xmlns:xlink="http://www.w3.org/1999/xlink" x="0px" y="0px"
	 viewBox="0 0 29 41.7" style="enable-background:new 0 0 29 41.7;" xml:space="preserve">
<style type="text/css">
	.st0{fill:#F24158;}
	.st1{fill:#FF5A6F;}
</style>
<path class="st0" d="M27.8,5.2h-24C3,5.2,2.4,4.6,2.4,3.8S3,2.4,3.8,2.4h24c0.7,0,1.2-0.5,1.2-1.2S28.4,0,27.8,0h-24
	C1.7,0,0,1.7,0,3.8v33.7c0,2.3,1.9,4.2,4.2,4.2h20.6c2.3,0,4.2-1.9,4.2-4.2V6.4C29,5.8,28.4,5.2,27.8,5.2z M19.5,7.6h3v5l-0.8-0.7
	c-0.2-0.2-0.4-0.3-0.7-0.3c-0.2,0-0.5,0.1-0.7,0.3l-0.8,0.7V7.6z M24.8,39.3H4.2c-1,0-1.8-0.8-1.8-1.8V7.4c0.4,0.2,0.9,0.3,1.4,0.3
	h13.6v7.3c0,0.4,0.2,0.8,0.6,1c0.4,0.2,0.8,0.1,1.1-0.2l1.9-1.6l1.9,1.6c0.2,0.2,0.4,0.3,0.7,0.3c0.1,0,0.3,0,0.4-0.1
	c0.4-0.2,0.6-0.5,0.6-1V7.6h2v29.9C26.6,38.5,25.8,39.3,24.8,39.3z"/>
</svg>
