<?xml version="1.0" encoding="utf-8"?>
<!-- Generator: Adobe Illustrator 22.1.0, SVG Export Plug-In . SVG Version: 6.00 Build 0)  -->
<svg version="1.1" id="Layer_1" xmlns="http://www.w3.org/2000/svg" xmlns:xlink="http://www.w3.org/1999/xlink" x="0px" y="0px"
	 viewBox="0 0 31.7 28.4" style="enable-background:new 0 0 31.7 28.4;" xml:space="preserve">
<style type="text/css">
	.st0{fill:#F24158;}
	.st1{fill:#FF5A6F;}
</style>
<g>
	<path class="st0" d="M6.3,15.2H5.1c-1.1,0-2.1,0.9-2.1,2.1v9.1c0,1.1,0.9,2.1,2.1,2.1h1.2c1.1,0,2.1-0.9,2.1-2.1v-9.1
		C8.4,16.1,7.5,15.2,6.3,15.2z"/>
	<path class="st0" d="M26.6,15.2h-1.2c-1.1,0-2.1,0.9-2.1,2.1v9.1c0,1.1,0.9,2.1,2.1,2.1h1.2c1.1,0,2.1-0.9,2.1-2.1v-9.1
		C28.6,16.1,27.7,15.2,26.6,15.2z"/>
	<path class="st0" d="M27.1,4.6c-3-3-7-4.6-11.2-4.6C11.6,0,7.6,1.6,4.6,4.6S0,11.6,0,15.9v9.4c0,0.6,0.5,1.1,1.1,1.1
		s1.1-0.5,1.1-1.1v-9.4c0-7.5,6.1-13.6,13.6-13.6c7.5,0,13.6,6.1,13.6,13.6v9.4c0,0.6,0.5,1.1,1.1,1.1c0.6,0,1.1-0.5,1.1-1.1v-9.4
		C31.7,11.6,30.1,7.6,27.1,4.6z"/>
</g>
</svg>
