<?xml version="1.0" encoding="utf-8"?>
<!-- Generator: Adobe Illustrator 22.1.0, SVG Export Plug-In . SVG Version: 6.00 Build 0)  -->
<svg version="1.1" id="Layer_1" xmlns="http://www.w3.org/2000/svg" xmlns:xlink="http://www.w3.org/1999/xlink" x="0px" y="0px"
	 viewBox="0 0 20 36" style="enable-background:new 0 0 20 36;" xml:space="preserve">
<style type="text/css">
	.st0{fill:#F24158;}
	.st1{fill:#FF5A6F;}
</style>
<g>
	<path class="st0" d="M16.4,0H3.5C1.6,0,0,1.6,0,3.5v28.9C0,34.4,1.6,36,3.5,36h12.9c1.9,0,3.5-1.6,3.5-3.5V3.5
		C20,1.6,18.4,0,16.4,0z M17.8,32.5c0,0.7-0.6,1.3-1.3,1.3H3.5c-0.7,0-1.3-0.6-1.3-1.3V3.5c0-0.7,0.6-1.3,1.3-1.3H5l0.1,0.2
		C5.4,3,5.9,3.3,6.5,3.3c0,0,0,0,0,0h7c0,0,0,0,0,0c0.6,0,1.2-0.4,1.4-0.9l0.1-0.2h1.5c0.7,0,1.3,0.6,1.3,1.3V32.5z"/>
	<circle class="st0" cx="10" cy="30.6" r="1.6"/>
</g>
</svg>
