<svg xmlns="http://www.w3.org/2000/svg" width="61" height="62" viewBox="0 0 61 62">
<defs>
    <style>
      .cls-1 {
        fill: #625c93;
        fill-rule: evenodd;
      }
    </style>
  </defs>
  <path class="cls-1" d="M599.492,4392.69a18.305,18.305,0,1,0,18.383,18.3A18.361,18.361,0,0,0,599.492,4392.69Zm0,33.5a15.2,15.2,0,1,1,15.262-15.2A15.248,15.248,0,0,1,599.492,4426.19Zm29.5-12.68-1.108-1.53a2.05,2.05,0,0,1-.012-2.41l1.082-1.53a5.162,5.162,0,0,0-1.783-7.55l-1.657-.89a2.061,2.061,0,0,1-1.069-2.16l0.317-1.85a5.169,5.169,0,0,0-4.89-6.02l-1.887-.08a2.067,2.067,0,0,1-1.9-1.48l-0.547-1.79a5.211,5.211,0,0,0-7.046-3.31l-1.733.73a2.1,2.1,0,0,1-2.356-.52l-1.261-1.39a5.192,5.192,0,0,0-7.783.05l-1.223,1.42a2.125,2.125,0,0,1-2.356.56l-1.746-.71a5.169,5.169,0,0,0-6.981,3.41l-0.5,1.81a2.067,2.067,0,0,1-1.885,1.51l-1.873.12a5.16,5.16,0,0,0-4.8,6.09l0.345,1.84a2.06,2.06,0,0,1-1.032,2.18l-1.643.91a5.159,5.159,0,0,0-1.669,7.57l1.109,1.51a2.049,2.049,0,0,1,.011,2.41l-1.082,1.54a5.169,5.169,0,0,0,1.783,7.55l1.657,0.89a2.054,2.054,0,0,1,1.069,2.15l-0.318,1.86a5.17,5.17,0,0,0,4.891,6.02l1.886,0.08a2.053,2.053,0,0,1,1.9,1.48l0.522,1.8a5.21,5.21,0,0,0,7.045,3.31l1.731-.73a2.1,2.1,0,0,1,2.357.52l1.262,1.39a5.2,5.2,0,0,0,7.787-.05l1.234-1.42a2.111,2.111,0,0,1,2.357-.56l1.745,0.71a5.169,5.169,0,0,0,6.981-3.41l0.5-1.81a2.068,2.068,0,0,1,1.886-1.51l1.885-.12a5.156,5.156,0,0,0,4.8-6.08l-0.344-1.84a2.067,2.067,0,0,1,1.032-2.19l1.643-.91a5.2,5.2,0,0,0,2.549-3.41A5.139,5.139,0,0,0,629,4413.51Zm-2.165,3.48a2.032,2.032,0,0,1-1.018,1.36l-1.643.92a5.145,5.145,0,0,0-2.587,5.45l0.344,1.84a2.018,2.018,0,0,1-.406,1.65A2.071,2.071,0,0,1,620,4429l-1.873.11a5.18,5.18,0,0,0-4.713,3.8l-0.5,1.8a2.07,2.07,0,0,1-2,1.52,2.165,2.165,0,0,1-.791-0.15l-1.746-.71a5.169,5.169,0,0,0-5.9,1.38l-1.236,1.41a2.07,2.07,0,0,1-1.567.71,2.016,2.016,0,0,1-1.541-.69l-1.262-1.39a5.228,5.228,0,0,0-3.872-1.73,5.147,5.147,0,0,0-2.052.42l-1.732.73a1.942,1.942,0,0,1-.815.17,2.078,2.078,0,0,1-1.988-1.48l-0.521-1.81a5.217,5.217,0,0,0-4.766-3.73l-1.885-.07a2.06,2.06,0,0,1-1.949-2.4l0.318-1.85a5.152,5.152,0,0,0-2.675-5.42l-1.656-.89a2.034,2.034,0,0,1-1.045-1.34,1.979,1.979,0,0,1,.331-1.66l1.083-1.54a5.144,5.144,0,0,0-.051-6.04l-1.108-1.51a1.978,1.978,0,0,1-.344-1.66,2.043,2.043,0,0,1,1.02-1.35l1.643-.92a5.15,5.15,0,0,0,2.586-5.45l-0.332-1.83a2.022,2.022,0,0,1,.407-1.65,2.071,2.071,0,0,1,1.516-.79l1.874-.11a5.2,5.2,0,0,0,4.713-3.79l0.5-1.82a2.069,2.069,0,0,1,2-1.52,2.16,2.16,0,0,1,.79.15l1.746,0.71a5.22,5.22,0,0,0,5.9-1.38l1.236-1.41a2.037,2.037,0,0,1,1.568-.71,2.012,2.012,0,0,1,1.54.69l1.261,1.39a5.233,5.233,0,0,0,3.873,1.73,5.147,5.147,0,0,0,2.052-.42l1.733-.74a2.091,2.091,0,0,1,2.8,1.32l0.522,1.8a5.2,5.2,0,0,0,4.766,3.73l1.885,0.08a2.037,2.037,0,0,1,1.529.76,2.017,2.017,0,0,1,.433,1.64l-0.319,1.85a5.168,5.168,0,0,0,2.675,5.42l1.657,0.88a2.065,2.065,0,0,1,.726,3.01l-1.081,1.54a5.144,5.144,0,0,0,.05,6.04l1.108,1.5A2.234,2.234,0,0,1,626.83,4416.99Zm-22.815-11.03-6.829,6.76-2.217-2.22a1.558,1.558,0,0,0-2.216,2.19l3.325,3.33a1.574,1.574,0,0,0,2.2,0l7.936-7.86a1.548,1.548,0,0,0,.014-2.19A1.581,1.581,0,0,0,604.015,4405.96Z" transform="translate(-569 -4380)"/>
</svg>
