<svg xmlns="http://www.w3.org/2000/svg" width="16.031" height="15" viewBox="0 0 16.031 15">
  <defs>
    <style>
      .cls-1 {
        fill: #eb4059;
        fill-rule: evenodd;
      }
    </style>
  </defs>
  <path class="cls-1" d="M437.341,2891a0.456,0.456,0,0,1-.273-0.09,0.442,0.442,0,0,1-.185-0.44l0.847-4.86-3.614-3.44a0.454,0.454,0,0,1-.118-0.47,0.48,0.48,0,0,1,.375-0.31l4.988-.71,2.227-4.43A0.471,0.471,0,0,1,442,2876h0a0.472,0.472,0,0,1,.416.25l2.236,4.42,4.989,0.71a0.448,0.448,0,0,1,.376.31,0.44,0.44,0,0,1-.117.46l-3.607,3.45,0.847,4.8a0.469,0.469,0,0,1,.02.14,0.456,0.456,0,0,1-.464.45h0a0.542,0.542,0,0,1-.216-0.05l-4.465-2.29-4.46,2.3A0.542,0.542,0,0,1,437.341,2891Z" transform="translate(-434 -2876)"/>
</svg>
