<svg xmlns="http://www.w3.org/2000/svg" width="18" height="16" viewBox="0 0 18 16">
  <defs>
    <style>
      .cls-1 {
        fill: #fff;
        fill-rule: evenodd;
      }
    </style>
  </defs>
  <path class="cls-1" d="M447.418,677.993a0.882,0.882,0,0,0,.743,1,0.867,0.867,0,0,0,.461-0.061l3.574-1.548a10.8,10.8,0,0,0,2.8.374c4.964,0,9-3.316,9-7.379S459.961,663,455,663s-9,3.31-9,7.38a6.579,6.579,0,0,0,1.85,4.49Zm0.327-7.614c0-3.1,3.256-5.609,7.255-5.609s7.254,2.516,7.254,5.609S459,675.988,455,675.988a9.071,9.071,0,0,1-2.618-.379,0.865,0.865,0,0,0-.589.034l-2.433,1.047,0.279-2.014a0.891,0.891,0,0,0-.266-0.767A4.833,4.833,0,0,1,447.745,670.379Z" transform="translate(-446 -663)"/>
</svg>
