<?xml version="1.0" encoding="utf-8"?>
<!-- Generator: Adobe Illustrator 22.1.0, SVG Export Plug-In . SVG Version: 6.00 Build 0)  -->
<svg version="1.1" id="Layer_1" xmlns="http://www.w3.org/2000/svg" xmlns:xlink="http://www.w3.org/1999/xlink" x="0px" y="0px"
	 viewBox="0 0 16 12" style="enable-background:new 0 0 16 12;" xml:space="preserve">
<style type="text/css">
	.st0{fill:#B53660;}
</style>
<path class="st0" d="M15.6,2.3l-9,9.3c-0.5,0.5-1.2,0.5-1.7,0.1c0,0,0,0-0.1-0.1L0.4,6.9c-0.5-0.5-0.5-1.4,0-1.9
	C0.8,4.5,1.6,4.5,2.1,5c0,0,0,0,0.1,0.1l3.6,3.8l8.1-8.4c0.5-0.5,1.2-0.5,1.7-0.1c0,0,0,0,0.1,0.1C16.1,0.9,16.1,1.7,15.6,2.3z"/>
</svg>
